<?xml version="1.0" encoding="utf-8"?>
<svg version="1.1" x="0px" y="0px" viewBox="0 0 1000 1000" enable-background="new 0 0 1000 1000" xmlns="http://www.w3.org/2000/svg">
  <g>
    <g transform="translate(0.000000,512.000000) scale(0.100000,-0.100000)">
      <path fill="#fff" d="M4646.5,5001.5c-1441.2-151.4-2635.1-1238-2924.5-2661.9c-264.5-1297.4,291.3-3003.1,1634.7-5021.1c467.6-701.4,1100-1517.8,1525.5-1973.9l116.9-124.6l107.3,115c942.9,1013.8,1941.4,2460.7,2502.9,3625.9c636.3,1320.4,856.7,2445.4,666.9,3380.6C7933.2,4024.2,6354.1,5181.7,4646.5,5001.5z M5574.1,4267.5c1042.6-241.5,1809.1-1027.2,2033.3-2083.2c59.4-277.9,59.4-749.3,1.9-1090.5C7389-209.3,6566.8-1778.8,5213.8-3482.5c-111.2-139.9-208.9-251.1-216.6-249.2c-19.2,7.7-231.9,276-490.6,619C3328-1541.2,2601.7-102,2390.9,1084.3c-53.7,308.5-59.4,804.9-11.5,1054c228.1,1161.4,1119.2,2012.3,2274.8,2175.2C4874.6,4344.2,5346,4321.2,5574.1,4267.5z" />
      <path fill="current" d="M 4700.332 4431.97 C 3479.095 4303.678 2467.414 3382.92 2222.182 2176.341 C 1998.053 1076.956 2469.023 -368.412 3607.387 -2078.416 C 4003.621 -2672.765 4539.499 -3364.562 4900.058 -3751.049 L 4999.117 -3856.632 L 5090.04 -3759.183 C 5889.031 -2900.115 6735.135 -1674.048 7210.937 -686.685 C 7750.121 432.189 7936.882 1385.487 7776.051 2177.951 C 7485.401 3603.83 6147.311 4584.668 4700.332 4431.97 Z"/>
    </g>
  </g>
</svg>